<svg xmlns="http://www.w3.org/2000/svg" viewBox="0 0 183.4 103.92"><defs><style>.a{fill:#00ab4e;}.a,.b,.c,.d{fill-rule:evenodd;}.b{fill:#febc11;}.c{fill:#ed1c24;}.d{fill:#034ea2;}</style></defs><title>logo</title><path class="a" d="M125.65.25l.25.25c.25.25.25.25.5.25.25.25,0,1,.5,1.25h.25a10.83,10.83,0,0,1,1.25.25c.5,0,.75.25,1.25.5a2.5,2.5,0,0,1,1,1.25c.25,0,.25,0,.5.25v.5c.25.25.25.5.5.75a.24.24,0,0,0,.25.25v.74c0,.26.25.26.25.5a1.89,1.89,0,0,0,.25,1v.25c0,.5.5,1.5.25,1.75a.77.77,0,0,0-.25.5c0,.25-.25.5-.25.75a5.42,5.42,0,0,1-1.5,1.75,10,10,0,0,0-1,.75l-.5.5a.24.24,0,0,1-.25.25c-.5,1-2.5,1.5-2.5,1.75a.87.87,0,0,0-.5.25.87.87,0,0,0-.5.25,6,6,0,0,1-2.25.75c-.25,0-1,.5-1.24.5a1.87,1.87,0,0,1-1.25.25h-.5c-.25,0-.75.25-1,0a5.25,5.25,0,0,1-2.75-1.75c-.25-.25-.25-.5-.5-.75a1.9,1.9,0,0,1-.5-1,2.25,2.25,0,0,1-.25-1.25V11.24a17.66,17.66,0,0,1,1.25-5.49,1.92,1.92,0,0,1,.5-.75,3.45,3.45,0,0,1,.75-1l.25-.25a10.87,10.87,0,0,1,1.75-1.5c0-.25.25-.25.5-.5A6.77,6.77,0,0,1,122.9.5c.5-.25.75-.5,1.25-.5a3.72,3.72,0,0,1,1.5.25Z" transform="translate(0.57)"/><path class="b" d="M95.93,2.5c.5,0,1.24.25,1.74.25a.24.24,0,0,0,.25.25l2.25.75c.25.25.25.25.5.25.25.25.5.25.75.5.25,0,.5.25.75.5.25,0,.25,0,.5.25,0,.25.25.5.25.74a.25.25,0,0,1,.25.26,2.28,2.28,0,0,1,.5,2.49c0,.25,0,.25-.25.5v.5c-.25.5-.5.75-.75,1.25-.25,0-.25.5-.5.75s-.5.25-.75.5c-.75.25-2.5,2.75-2.75,3,0,.25-1,.5-1,.75-.25.25-.25.25-.25.5-.25.25-.49.5-.75.5a1.84,1.84,0,0,1-1,.5.77.77,0,0,1-.5.25c-.5,0-.75.25-1,.25s-1,.25-1.25.25c-.25.25-1,.25-1.25.25h-.75c0-.25-1.25-1-1.5-1.5l-.5-.5V16a7.2,7.2,0,0,1-.25-3.25V12a11.06,11.06,0,0,1,1.25-3.75c0-.25.25-.5.25-.75a4.52,4.52,0,0,1,1.25-1.74,8.49,8.49,0,0,1,1.5-1.5c0-.25.5-.25.75-.5l.5-.5c.25,0,.5-.25.75-.25s.75-.25,1-.25V2.5Z" transform="translate(0.57)"/><path class="c" d="M74.19,13.24a2.84,2.84,0,0,1,1.5,1.5c.5.5,1,2.5,1.25,3a2.62,2.62,0,0,1-.5,1.49c-.25.25-.5.25-.75.5v1a.54.54,0,0,0-.5.5c-.25,0-.25.25-.5.25-.5,1.25-4.49,3.5-7.74,4a3.73,3.73,0,0,1-1.75-.75,3.06,3.06,0,0,1-.75-2.25c.5-1-.25-1,0-3.25.25-.74,1.75-4,3.25-5,.25-.25.5-.25.75-.5.25,0,.25-.25.75-.5h1.25c.25,0,.5.25.74.25.75-.25,1.25-.75,2-.75l1,.5Z" transform="translate(0.57)"/><path class="d" d="M175.86,16c.5,0,.5.5.5.75a10.83,10.83,0,0,1-.25,1.25.92.92,0,0,1-.75.25,3.25,3.25,0,0,1-.75,1c-.25.25-.5.25-.74.5a1.9,1.9,0,0,1-1,.5,20.85,20.85,0,0,1-3,2,1.9,1.9,0,0,0-1,.5c-.25,0-.5.25-1,.25a10.87,10.87,0,0,1-1.75,1h-.5a6.27,6.27,0,0,0-1.75,1,3.73,3.73,0,0,1-1.75.75,24.47,24.47,0,0,0-4,1.25,3.55,3.55,0,0,1-1.5.5c-.25,0-.75.25-1,.25s-1.5.25-1.75.25-.75.25-1,.25c-.75,0-1.25.25-2,.25a.77.77,0,0,1-.5.25c-.5,0-2.25.75-3,.75,0,0-1.25.5-1.75.75,0,0-1.5.25-2,.25-.5.25-3.5,1-3.5,1-1.25.25-2.5.25-3.5.5-.5.24-1,.24-1.5.49H133.4c-.25,0-2.25.25-2.75.25-.75,0-1.75.25-2.5.25H124.4c-.25,0-1.25-.25-1.5,0h-1a1.59,1.59,0,0,0-1.5,0h-5.25a7.71,7.71,0,0,1-2.5-.25c-1.5.25-3.24.25-4.74.5a4.63,4.63,0,0,1-1.75.5h-3.5a28.69,28.69,0,0,0-3.5.5,42.73,42.73,0,0,0-6,3,15.93,15.93,0,0,0-1.75.5c-.25,0-.5.25-.75.25,0,0-.5.5-.75.5a5.23,5.23,0,0,1-1.5,1,23.23,23.23,0,0,0-2.5,1.25,13.28,13.28,0,0,0-2.24,1.75c-.26,0-.5.25-.75.25a.54.54,0,0,1-.5.5c-.25.25-.5.25-.75.5A7.85,7.85,0,0,0,79.94,45c-.25,0-.5.26-.75.26-2.75,2-4.25,5.24-4.5,5.49s-.5.5-.5.75c-.25.5.25.75.25,1.25v2c0,.5-.25,1.75-.75,2-.25.25-.5.25-1,.5-.25,0-.5.25-.75.25s-.75,0-.75.25c-.49,0-1.49-.5-2-.5a4.22,4.22,0,0,0-1.5-.75c-.25-.25-.5-.25-.75-.5-.25,0-1-.5-1.25-.5s-.5-.25-.75-.25a3.45,3.45,0,0,1-1-.75.92.92,0,0,0-.75-.25c-.25-.25-.25-.5-.5-.5a17.54,17.54,0,0,1-2.25-1.5,5.46,5.46,0,0,0-1.25-.75c0-.25-1-1-1.24-1.25a8.68,8.68,0,0,0-2.25-1.5L54,47c-.25-.25-.5-.75-.75-1s-.5-.5-.5-.74a17.52,17.52,0,0,0-2.5-2c-1.25-1-2.25-1.75-3.5-2.75a.87.87,0,0,0-.5-.25l-.5-.5c-.25-.25-.49-.25-.49-.5-.5-.25-1-.75-1.5-1-.25-.25-.75-.5-1-.75-1-.75-1.75-1.5-2.75-2.25-1.75-1-3.75-1.75-5.5-2.75-.25,0-.5-.25-1-.49a27,27,0,0,0-2.74-1.5c-.5,0-.75-.25-1-.25A26,26,0,0,0,22.23,28a14.54,14.54,0,0,0-3.24-.5c-.5,0-1-.25-1.5-.25a6.92,6.92,0,0,0-2.25.25A2.25,2.25,0,0,0,14,27.23H12c-.5,0-4.5.25-5,.25-.24.25-.5.25-.74.5h-1a.77.77,0,0,1-.5.25c-.5.25-1,.25-1.5.5-.25,0-.5.25-.75.25s-.75.25-1,.25c-.5.25-1.5.75-2,0-.25-.25.25-.75.5-1A5.44,5.44,0,0,1,2,27a24.34,24.34,0,0,1,5.74-2.25c.25,0,2.25-.5,2.25-.5.25,0,1.75-.25,1.75-.25a.92.92,0,0,1,.75-.25h3.75c.25-.25.5-.25,1-.25h.25c.5-.25,1.5,0,2,0h1c.5,0,1,.25,1.75.25.25-.25.75,0,1,0a19.5,19.5,0,0,1,5.5.75,4.25,4.25,0,0,1,1.75.25c.25,0,1.75.25,2.24.25,1,.25,2,.5,3.25.75A40,40,0,0,0,41.22,27c.75.25,1.5.75,2.25,1,.5,0,1,.25,1.49.25l1.5.75c.75.25,2.75,1.25,3,1.25,1.25.5,2.25,1,3.25,1.5C54.71,33,56.46,34,58.2,35l2.25,1.5a1.9,1.9,0,0,0,1,.5c.5,0,.75-.25,1-.25.25-.25,2-.75,2.25-1a.87.87,0,0,1,.5-.25c.5-.25,1.25-.75,1.25-.75.25,0,1-.5,1.25-.5.5-.25.75-.75,1.25-1,.75-.5,1.5-.75,2.24-1.24.25,0,1.25-1,1.75-1a1.9,1.9,0,0,0,1-.5l1.5-.75a4.63,4.63,0,0,1,1.75-.5,18.85,18.85,0,0,1,3.25-1.5.92.92,0,0,0,.75-.25c.25,0,1.25-.25,1.5-.25a.77.77,0,0,1,.5-.25,2.61,2.61,0,0,0,1.24-.5c.25,0,1.5-.5,2-.5h.25a1.87,1.87,0,0,1,1.25-.25,2.25,2.25,0,0,1,1.25-.25c.25,0,.5,0,.5-.25h.75a12.55,12.55,0,0,1,3-.5h.5a14.35,14.35,0,0,1,3-.25h1.24c0-.25.25-.25.5-.25h1.25a2.72,2.72,0,0,1,1.25-.25c.5-.25,1,0,1.25,0,.25-.25.75,0,1,0a.92.92,0,0,1,.75-.25h3a52.46,52.46,0,0,1,5.74.25c.5-.25,1.25,0,1.75,0,1.25,0,2.5.25,3.5.25.75,0,3.25.25,3.75.25a5.45,5.45,0,0,1,2,.25,14.75,14.75,0,0,1,3.5.5h1c.5,0,1.25.25,1.75.25,1,0,2,.25,3,.25.75,0,3.49.5,4.24.5h4.25a.24.24,0,0,1,.25-.25h4.5l.25-.25h.5c.25,0,1-.25,1.49-.25h.75c.25,0,2.25-.5,2.5-.5h.25c.25,0,.25-.25.5-.25h.5a1.87,1.87,0,0,1,1.25-.25,17.22,17.22,0,0,1,2-.75c.25,0,.25-.25.5-.25a3.61,3.61,0,0,0,1.75-.5c.5-.25,1.25-.5,1.75-.75,1-.25,2-.5,2.74-.75.25,0,.75-.25,1-.25.25-.25.75-.25,1.25-.5a17.24,17.24,0,0,0,2.5-1,15.58,15.58,0,0,1,2.25-1c.5-.25.75-.5,1.25-.75.25-.25.5-.5.75-.5a3.55,3.55,0,0,1,1.5-.5c.25-.25.49-.25.74-.5.5-.25,1-.25,1.5-.5Z" transform="translate(0.57)"/><polygon class="d" points="3.99 84.22 3.99 72.23 16.41 72.23 16.41 69.67 0.57 69.67 0.57 103.06 16.84 103.06 16.84 100.49 3.99 100.49 3.99 86.79 13.84 86.79 13.84 84.22 3.99 84.22 3.99 84.22"/><path class="d" d="M36,100.92v2.14h3.42V72.23H36V82.94h0c-2.14-1.71-4.28-3-6.85-3-5.14,0-9,3.86-9,12,0,7.28,3,12,9,12,3.85,0,5.56-2.14,6.85-3Zm-6,.43c-3.85,0-6-3.42-6-9.42s2.14-9.42,6-9.42c2.14,0,4.28,1.29,6,3.43v12c-1.29,1.28-3,3.42-6,3.42Z" transform="translate(0.57)"/><path class="d" d="M45,80.37V96.21a9.6,9.6,0,0,0,1.71,5.57,6.86,6.86,0,0,0,5.14,1.71,21.42,21.42,0,0,0,5.14-.86c1.28-.85,2.14-1.71,3.42-2.56h0v3h3.86V80.37H60.37v16.7a19.07,19.07,0,0,1-3.42,3,12.77,12.77,0,0,1-3.86.85,4.23,4.23,0,0,1-3.42-1.28c-.86-.86-.86-2.57-.86-4.28v-15Z" transform="translate(0.57)"/><path class="d" d="M85.64,85.51a7.6,7.6,0,0,0-7.71-5.57c-5.57,0-9.42,3.86-9.42,12,0,8.56,3.42,12,9.42,12a7.91,7.91,0,0,0,8.13-6.42l-3.85-.43c-.43,3-2.14,4.28-4.28,4.28-3,0-5.57-2.14-5.57-9.42,0-6.42,2.14-9.42,5.57-9.42,2.14,0,3.42,1.29,4.28,3.43l3.43-.43Z" transform="translate(0.57)"/><path class="d" d="M107.05,103.06h0c-.86-.85-.86-1.71-.86-3.42V88.5c0-6.42-2.57-8.56-7.71-8.56-5.56,0-7.71,3-8.56,6l3.85.42a4.29,4.29,0,0,1,4.28-4.28c3.43,0,4.71,2.14,4.71,5.57v.85c-10.27,1.29-13.7,4.29-13.7,9,0,3.85,2.14,6,7.28,6,2.57,0,5.14-.86,6.42-2.14h0a2.21,2.21,0,0,0,.86,1.71Zm-4.29-4.28a7.27,7.27,0,0,1-5.56,2.57c-3.43,0-4.71-1.71-4.71-4.28,0-3.43,3-5.57,10.27-6.42v8.13Z" transform="translate(0.57)"/><path class="d" d="M113.47,80.37H110v2.57h3.43V96.21c0,5.57,2.57,7.71,6.42,7.71a9.25,9.25,0,0,0,5.14-1.71l-.86-2.14a6.45,6.45,0,0,1-3.42,1.28c-2.14,0-3.86-1.71-3.86-6V82.94h6.43V80.37h-6.43V75.66h-3.42v4.71Z" transform="translate(0.57)"/><path class="d" d="M133.16,75.66V72.23h-3.42v3.43Zm0,4.71h-3.42v22.69h3.42V80.37Z" transform="translate(0.57)"/><path class="d" d="M159.28,91.93c0-8.56-4.28-12-10.27-12s-10.28,3.43-10.28,12c0,7.71,3.43,12,10.28,12s10.27-4.71,10.27-12ZM149,101.35c-3.86,0-6.85-3-6.85-9.42,0-6.85,3.42-9.42,6.85-9.42s6.42,2.57,6.42,9.42c0,6.42-2.57,9.42-6.42,9.42Z" transform="translate(0.57)"/><path class="d" d="M182.83,103.06V87.65c0-3-.43-4.71-1.71-5.57-.86-1.28-3-2.14-5.14-2.14a8.23,8.23,0,0,0-4.28,1.29,15.56,15.56,0,0,0-4.28,2.57h0v-3H164v22.26h3.43V86.79c1.28-1.28,2.57-2.57,3.85-3a6.91,6.91,0,0,1,3.86-1.29,3.08,3.08,0,0,1,3,1.71,6.38,6.38,0,0,1,1.29,4.28v14.56Z" transform="translate(0.57)"/></svg>